<?xml version="1.0" encoding="UTF-8" standalone="no"?>
<!-- Created with Inkscape (http://www.inkscape.org/) -->

<svg
   width="150"
   height="150"
   viewBox="0 0 39.687499 39.6875"
   version="1.1"
   id="svg1"
   inkscape:version="1.3.1 (9b9bdc1480, 2023-11-25, custom)"
   sodipodi:docname="logog.svg"
   xmlns:inkscape="http://www.inkscape.org/namespaces/inkscape"
   xmlns:sodipodi="http://sodipodi.sourceforge.net/DTD/sodipodi-0.dtd"
   xmlns="http://www.w3.org/2000/svg"
   xmlns:svg="http://www.w3.org/2000/svg">
  <sodipodi:namedview
     id="namedview1"
     pagecolor="#ffffff"
     bordercolor="#000000"
     borderopacity="0.25"
     inkscape:showpageshadow="2"
     inkscape:pageopacity="0.0"
     inkscape:pagecheckerboard="true"
     inkscape:deskcolor="#d1d1d1"
     inkscape:document-units="px"
     inkscape:zoom="2.404716"
     inkscape:cx="11.227937"
     inkscape:cy="93.981992"
     inkscape:window-width="1920"
     inkscape:window-height="1011"
     inkscape:window-x="0"
     inkscape:window-y="0"
     inkscape:window-maximized="1"
     inkscape:current-layer="layer1" />
  <defs
     id="defs1" />
  <g
     inkscape:label="Camada 1"
     inkscape:groupmode="layer"
     id="layer1">
    <path
       d="m 13.746642,39.687499 c 1.890165,0 3.436662,-1.532256 3.436662,-3.405015 H 10.30998 c 0,1.872759 1.529312,3.405015 3.436662,3.405015 z m 10.30998,-10.21504 v -8.512535 c 0,-5.22669 -2.818063,-9.602131 -7.732485,-10.759838 V 9.0423792 c 0,-1.4130794 -1.151282,-2.55376 -2.577495,-2.55376 -1.426213,0 -2.577495,1.1406806 -2.577495,2.55376 V 10.200086 C 6.2375411,11.357793 3.4366621,15.716208 3.4366621,20.959924 v 8.512535 L 0,32.877475 v 1.702504 h 27.493284 v -1.702504 z"
       id="path2"
       style="fill:#003399;stroke-width:1.7104" />
    <path
       d="m 30.994923,0 h -7.9122 c -0.543977,0 -0.984075,0.440968 -0.984075,0.97991673 l -0.005,8.81926347 1.978048,-1.9598399 h 6.923176 c 0.543977,0 0.989024,-0.440968 0.989024,-0.9799167 V 0.97991673 C 31.983915,0.44094869 31.538849,0 30.994891,0 Z M 25.555287,4.4096285 H 24.566263 V 3.4297118 h 0.989024 z m 1.978048,0 H 26.544311 V 3.4297118 h 0.989024 z m 1.978055,0 H 28.522366 V 3.4297118 h 0.989024 z"
       id="path4"
       style="fill:#3366cc;stroke-width:0.49223" />
    <path
       d="m 38.600701,8.8335613 h -8.694927 c -0.597752,0 -1.081428,0.4845951 -1.081428,1.0768615 l -0.0055,9.6917152 2.173734,-2.153717 h 7.608057 c 0.597752,0 1.086864,-0.484595 1.086864,-1.076855 V 9.9104228 c 0,-0.5922471 -0.489099,-1.0768615 -1.086864,-1.0768615 z m -3.804035,6.4611427 h -1.086864 v -1.076855 h 1.086864 z m 0,-2.15371 h -1.086864 v -2.153716 h 1.086864 z"
       id="path4-3"
       style="fill:#6699ff;stroke-width:0.540924" />
    <path
       d="m 36.793438,20.652887 h -8.759963 c -0.602233,0 -1.08952,0.488199 -1.08952,1.084911 l -0.0057,9.764208 2.189982,-2.169822 h 7.664968 c 0.602233,0 1.094995,-0.488199 1.094995,-1.084912 v -6.509474 c 0,-0.596687 -0.492736,-1.084911 -1.094995,-1.084911 z m -7.664969,3.797189 h 6.569968 v 1.084918 h -6.569968 z m 4.379979,2.712285 H 29.128469 V 26.07745 h 4.379979 z m 2.189989,-3.254734 H 29.128469 V 22.82271 h 6.569968 z"
       id="path4-6"
       style="fill:#3366cc;stroke-width:0.544972" />
  </g>
</svg>
