<?xml version="1.0" encoding="UTF-8" standalone="no"?>
<svg
   height="24px"
   viewBox="0 0 24 24"
   width="24px"
   fill="#000000"
   version="1.1"
   id="svg4"
   sodipodi:docname="logo.svg"
   inkscape:version="1.1.2 (0a00cf5339, 2022-02-04)"
   xmlns:inkscape="http://www.inkscape.org/namespaces/inkscape"
   xmlns:sodipodi="http://sodipodi.sourceforge.net/DTD/sodipodi-0.dtd"
   xmlns="http://www.w3.org/2000/svg"
   xmlns:svg="http://www.w3.org/2000/svg">
  <defs
     id="defs8" />
  <sodipodi:namedview
     id="namedview6"
     pagecolor="#ffffff"
     bordercolor="#111111"
     borderopacity="1"
     inkscape:pageshadow="0"
     inkscape:pageopacity="0"
     inkscape:pagecheckerboard="1"
     showgrid="false"
     inkscape:zoom="17.541667"
     inkscape:cx="36.912114"
     inkscape:cy="17.016627"
     inkscape:window-width="1920"
     inkscape:window-height="1016"
     inkscape:window-x="1920"
     inkscape:window-y="27"
     inkscape:window-maximized="1"
     inkscape:current-layer="svg4" />
  <path
     d="m 8.0190234,24.010447 c 1.1,0 2.0000006,-0.9 2.0000006,-2 H 6.0190234 c 0,1.1 0.89,2 2,2 z m 6.0000006,-6 v -5 c 0,-3.0699994 -1.64,-5.6399994 -4.5000006,-6.3199994 v -0.68 c 0,-0.83 -0.67,-1.5 -1.5,-1.5 -0.83,0 -1.5,0.67 -1.5,1.5 v 0.68 c -2.87,0.68 -4.5,3.24 -4.5,6.3199994 v 5 l -2.00000018,2 v 1 H 16.019024 v -1 z"
     id="path2"
     style="fill:#003399" />
  <path
     d="m 18.056842,0.6992326 h -4.604587 c -0.316565,0 -0.572695,0.2590082 -0.572695,0.5755736 l -0.0029,5.1801612 1.151146,-1.151147 h 4.029015 c 0.316566,0 0.575573,-0.2590081 0.575573,-0.5755735 V 1.2748062 c 0,-0.3165654 -0.259007,-0.5755736 -0.575573,-0.5755736 z M 14.891188,3.2893133 H 14.315615 V 2.7137398 h 0.575573 z m 1.151147,0 H 15.466762 V 2.7137398 h 0.575573 z m 1.151147,0 H 16.617909 V 2.7137398 h 0.575573 z"
     id="path4"
     style="fill:#3366cc;stroke-width:0.287787" />
  <path
     d="m 22.483101,5.8877947 h -5.060102 c -0.347882,0 -0.62935,0.2846308 -0.62935,0.6325129 l -0.0032,5.6926164 1.265026,-1.265026 h 4.427589 c 0.347882,0 0.632513,-0.28463 0.632513,-0.632513 V 6.5203076 c 0,-0.3478821 -0.284631,-0.6325129 -0.632513,-0.6325129 z M 20.269306,9.6828714 H 19.636793 V 9.050359 h 0.632513 z m 0,-1.2650254 H 19.636793 V 7.1528203 h 0.632513 z"
     id="path4-3"
     style="stroke-width:0.316256;fill:#6699ff" />
  <path
     d="m 21.431345,12.830103 h -5.09795 c -0.350484,0 -0.634058,0.286758 -0.634058,0.637243 l -0.0033,5.735194 1.274486,-1.274488 h 4.460708 c 0.350483,0 0.637243,-0.286759 0.637243,-0.637243 v -3.823463 c 0,-0.350485 -0.28676,-0.637243 -0.637243,-0.637243 z m -4.460707,2.230352 h 3.823463 V 15.6977 h -3.823463 z m 2.548975,1.59311 h -2.548975 v -0.637243 h 2.548975 z m 1.274488,-1.911731 h -3.823463 v -0.637245 h 3.823463 z"
     id="path4-6"
     style="stroke-width:0.318622;fill:#3366cc" />
</svg>
