<?xml version="1.0" encoding="UTF-8" standalone="no"?>
<svg
   enable-background="new 0 0 24 24"
   height="24px"
   viewBox="0 0 24 24"
   width="24px"
   fill="#000000"
   version="1.1"
   id="svg14"
   sodipodi:docname="search_clear.svg"
   inkscape:version="1.1.2 (0a00cf5339, 2022-02-04)"
   xmlns:inkscape="http://www.inkscape.org/namespaces/inkscape"
   xmlns:sodipodi="http://sodipodi.sourceforge.net/DTD/sodipodi-0.dtd"
   xmlns="http://www.w3.org/2000/svg"
   xmlns:svg="http://www.w3.org/2000/svg">
  <defs
     id="defs18" />
  <sodipodi:namedview
     id="namedview16"
     pagecolor="#ffffff"
     bordercolor="#111111"
     borderopacity="1"
     inkscape:pageshadow="0"
     inkscape:pageopacity="0"
     inkscape:pagecheckerboard="1"
     showgrid="false"
     inkscape:zoom="35.083333"
     inkscape:cx="11.985748"
     inkscape:cy="11.985748"
     inkscape:window-width="1920"
     inkscape:window-height="1016"
     inkscape:window-x="1920"
     inkscape:window-y="27"
     inkscape:window-maximized="1"
     inkscape:current-layer="svg14" />
  <g
     id="g4">
    <rect
       fill="none"
       height="24"
       width="24"
       id="rect2" />
  </g>
  <g
     id="g12"
     style="fill:#003399">
    <g
       id="g10"
       style="fill:#003399">
      <path
         d="M15.5,14h-0.79l-0.28-0.27C15.41,12.59,16,11.11,16,9.5C16,5.91,13.09,3,9.5,3C6.08,3,3.28,5.64,3.03,9h2.02 C5.3,6.75,7.18,5,9.5,5C11.99,5,14,7.01,14,9.5S11.99,14,9.5,14c-0.17,0-0.33-0.03-0.5-0.05v2.02C9.17,15.99,9.33,16,9.5,16 c1.61,0,3.09-0.59,4.23-1.57L14,14.71v0.79l5,4.99L20.49,19L15.5,14z"
         id="path6"
         style="fill:#003399" />
      <polygon
         points="6.47,10.82 4,13.29 1.53,10.82 0.82,11.53 3.29,14 0.82,16.47 1.53,17.18 4,14.71 6.47,17.18 7.18,16.47 4.71,14 7.18,11.53"
         id="polygon8"
         style="fill:#003399" />
    </g>
  </g>
</svg>
